<mxfile host="app.diagrams.net" modified="2024-04-18T14:11:00.302Z" agent="Mozilla/5.0 (Windows NT 10.0; Win64; x64) AppleWebKit/537.36 (KHTML, like Gecko) Chrome/123.0.0.0 Safari/537.36" etag="JVkQ2BXQt1fJMY9BM9Ue" version="24.2.5" type="device">
  <diagram name="PÃ¡gina-1" id="vkqXX1EBk3P6qlkBClmM">
    <mxGraphModel dx="1434" dy="738" grid="1" gridSize="10" guides="1" tooltips="1" connect="1" arrows="1" fold="1" page="1" pageScale="1" pageWidth="827" pageHeight="1169" math="0" shadow="0">
      <root>
        <mxCell id="0" />
        <mxCell id="1" parent="0" />
        <mxCell id="jVwabESRVsB_DtnYk1jO-1" value="Projeto: Comida&lt;div&gt;DC (Diagrama de Classes)&lt;/div&gt;&lt;div&gt;UML (Unified Modeling Language)&lt;/div&gt;" style="text;html=1;align=center;verticalAlign=middle;whiteSpace=wrap;rounded=0;" parent="1" vertex="1">
          <mxGeometry x="289" y="20" width="250" height="150" as="geometry" />
        </mxCell>
        <mxCell id="jVwabESRVsB_DtnYk1jO-2" value="&lt;p style=&quot;margin:0px;margin-top:4px;text-align:center;&quot;&gt;&lt;b&gt;Comida&lt;/b&gt;&lt;/p&gt;&lt;hr size=&quot;1&quot; style=&quot;border-style:solid;&quot;&gt;&lt;p style=&quot;margin:0px;margin-left:4px;&quot;&gt;+ nome: String;&lt;/p&gt;&lt;p style=&quot;margin:0px;margin-left:4px;&quot;&gt;+ tipo:&amp;nbsp;&lt;span style=&quot;background-color: initial;&quot;&gt;String;&lt;/span&gt;&lt;/p&gt;&lt;p style=&quot;margin:0px;margin-left:4px;&quot;&gt;+ peso: int;&lt;/p&gt;&lt;hr size=&quot;1&quot; style=&quot;border-style:solid;&quot;&gt;&lt;p style=&quot;margin:0px;margin-left:4px;&quot;&gt;+ construct(nome, tipo, peso): void&lt;/p&gt;" style="verticalAlign=top;align=left;overflow=fill;html=1;whiteSpace=wrap;" parent="1" vertex="1">
          <mxGeometry x="100" y="280" width="160" height="120" as="geometry" />
        </mxCell>
        <mxCell id="jVwabESRVsB_DtnYk1jO-5" value="&lt;p style=&quot;margin:0px;margin-top:4px;text-align:center;&quot;&gt;&lt;b&gt;Salgada&lt;/b&gt;&lt;/p&gt;&lt;hr size=&quot;1&quot; style=&quot;border-style:solid;&quot;&gt;&lt;p style=&quot;margin:0px;margin-left:4px;&quot;&gt;+ nome: String;&lt;/p&gt;&lt;p style=&quot;margin:0px;margin-left:4px;&quot;&gt;+ marca:&amp;nbsp;&lt;span style=&quot;background-color: initial;&quot;&gt;String,&amp;nbsp;&lt;/span&gt;&lt;span style=&quot;background-color: initial;&quot;&gt;default(&#39;Salgada&#39;);&lt;/span&gt;&lt;/p&gt;&lt;p style=&quot;margin:0px;margin-left:4px;&quot;&gt;+&amp;nbsp;&lt;span style=&quot;background-color: initial;&quot;&gt;ano: int;&lt;/span&gt;&lt;/p&gt;&lt;hr size=&quot;1&quot; style=&quot;border-style:solid;&quot;&gt;&lt;p style=&quot;margin:0px;margin-left:4px;&quot;&gt;+ construct(nome, tipo, peso): void&lt;br&gt;&lt;/p&gt;" style="verticalAlign=top;align=left;overflow=fill;html=1;whiteSpace=wrap;" parent="1" vertex="1">
          <mxGeometry x="311" y="280" width="200" height="120" as="geometry" />
        </mxCell>
        <mxCell id="jVwabESRVsB_DtnYk1jO-7" value="&lt;p style=&quot;margin:0px;margin-top:4px;text-align:center;&quot;&gt;&lt;b&gt;Doce&lt;/b&gt;&lt;/p&gt;&lt;hr size=&quot;1&quot; style=&quot;border-style:solid;&quot;&gt;&lt;p style=&quot;margin:0px;margin-left:4px;&quot;&gt;+ nome: String;&lt;/p&gt;&lt;p style=&quot;margin:0px;margin-left:4px;&quot;&gt;+ marca:&amp;nbsp;&lt;span style=&quot;background-color: initial;&quot;&gt;String,&amp;nbsp;&lt;/span&gt;&lt;span style=&quot;background-color: initial;&quot;&gt;default(&#39;Doce&#39;)&lt;/span&gt;&lt;span style=&quot;background-color: initial;&quot;&gt;;&lt;/span&gt;&lt;/p&gt;&lt;p style=&quot;margin:0px;margin-left:4px;&quot;&gt;+&amp;nbsp;&lt;span style=&quot;background-color: initial;&quot;&gt;peso: int;&lt;/span&gt;&lt;/p&gt;&lt;hr size=&quot;1&quot; style=&quot;border-style:solid;&quot;&gt;&lt;p style=&quot;margin:0px;margin-left:4px;&quot;&gt;+ construct(nome, tipo, peso): void&lt;br&gt;&lt;/p&gt;" style="verticalAlign=top;align=left;overflow=fill;html=1;whiteSpace=wrap;" parent="1" vertex="1">
          <mxGeometry x="561" y="280" width="200" height="120" as="geometry" />
        </mxCell>
        <mxCell id="jVwabESRVsB_DtnYk1jO-9" value="0..*" style="endArrow=open;html=1;endSize=12;startArrow=diamondThin;startSize=14;startFill=0;edgeStyle=orthogonalEdgeStyle;align=left;verticalAlign=bottom;rounded=0;exitX=0.5;exitY=0;exitDx=0;exitDy=0;entryX=0.006;entryY=0.448;entryDx=0;entryDy=0;entryPerimeter=0;" parent="1" source="jVwabESRVsB_DtnYk1jO-2" target="CQhCQnqNepJnieQpfATV-1" edge="1">
          <mxGeometry x="-0.7701" y="10" relative="1" as="geometry">
            <mxPoint x="400" y="190" as="sourcePoint" />
            <mxPoint x="276" y="160" as="targetPoint" />
            <mxPoint as="offset" />
          </mxGeometry>
        </mxCell>
        <mxCell id="jVwabESRVsB_DtnYk1jO-10" value="0..*" style="endArrow=open;html=1;endSize=12;startArrow=diamondThin;startSize=14;startFill=0;edgeStyle=orthogonalEdgeStyle;align=left;verticalAlign=bottom;rounded=0;exitX=0.5;exitY=0;exitDx=0;exitDy=0;entryX=0.5;entryY=1;entryDx=0;entryDy=0;" parent="1" source="jVwabESRVsB_DtnYk1jO-5" target="CQhCQnqNepJnieQpfATV-1" edge="1">
          <mxGeometry x="-0.521" y="11" relative="1" as="geometry">
            <mxPoint x="190" y="290" as="sourcePoint" />
            <mxPoint x="411.8700000000001" y="200.6400000000001" as="targetPoint" />
            <mxPoint as="offset" />
          </mxGeometry>
        </mxCell>
        <mxCell id="jVwabESRVsB_DtnYk1jO-11" value="0..*" style="endArrow=open;html=1;endSize=12;startArrow=diamondThin;startSize=14;startFill=0;edgeStyle=orthogonalEdgeStyle;align=left;verticalAlign=bottom;rounded=0;exitX=0.5;exitY=0;exitDx=0;exitDy=0;entryX=1;entryY=0.5;entryDx=0;entryDy=0;" parent="1" source="jVwabESRVsB_DtnYk1jO-7" target="CQhCQnqNepJnieQpfATV-1" edge="1">
          <mxGeometry x="-0.7778" y="11" relative="1" as="geometry">
            <mxPoint x="421" y="290" as="sourcePoint" />
            <mxPoint x="486" y="160" as="targetPoint" />
            <mxPoint as="offset" />
          </mxGeometry>
        </mxCell>
        <mxCell id="jVwabESRVsB_DtnYk1jO-13" value="&lt;p style=&quot;margin:0px;margin-top:4px;text-align:center;&quot;&gt;&lt;b&gt;ComidaBuilder&lt;/b&gt;&lt;/p&gt;&lt;hr size=&quot;1&quot; style=&quot;border-style:solid;&quot;&gt;&lt;p style=&quot;margin:0px;margin-left:4px;&quot;&gt;+ construct(nome, tipo, peso): void&lt;/p&gt;&lt;p style=&quot;margin:0px;margin-left:4px;&quot;&gt;+ addIngrediente(turbo):void&lt;/p&gt;&lt;p style=&quot;margin:0px;margin-left:4px;&quot;&gt;+ build():comida&lt;/p&gt;" style="verticalAlign=top;align=left;overflow=fill;html=1;whiteSpace=wrap;" parent="1" vertex="1">
          <mxGeometry x="314" y="470" width="200" height="95.5" as="geometry" />
        </mxCell>
        <mxCell id="jVwabESRVsB_DtnYk1jO-14" value="return" style="html=1;verticalAlign=bottom;endArrow=open;dashed=1;endSize=8;curved=0;rounded=0;exitX=0;exitY=0.5;exitDx=0;exitDy=0;entryX=0.514;entryY=1.027;entryDx=0;entryDy=0;entryPerimeter=0;" parent="1" source="jVwabESRVsB_DtnYk1jO-13" target="jVwabESRVsB_DtnYk1jO-2" edge="1">
          <mxGeometry relative="1" as="geometry">
            <mxPoint x="400" y="530" as="sourcePoint" />
            <mxPoint x="140" y="510" as="targetPoint" />
          </mxGeometry>
        </mxCell>
        <mxCell id="jVwabESRVsB_DtnYk1jO-15" value="return" style="html=1;verticalAlign=bottom;endArrow=open;dashed=1;endSize=8;curved=0;rounded=0;exitX=0.5;exitY=0;exitDx=0;exitDy=0;entryX=0.5;entryY=1;entryDx=0;entryDy=0;" parent="1" source="jVwabESRVsB_DtnYk1jO-13" target="jVwabESRVsB_DtnYk1jO-5" edge="1">
          <mxGeometry relative="1" as="geometry">
            <mxPoint x="321" y="538" as="sourcePoint" />
            <mxPoint x="192" y="413" as="targetPoint" />
          </mxGeometry>
        </mxCell>
        <mxCell id="jVwabESRVsB_DtnYk1jO-16" value="return" style="html=1;verticalAlign=bottom;endArrow=open;dashed=1;endSize=8;curved=0;rounded=0;exitX=1;exitY=0.5;exitDx=0;exitDy=0;entryX=0.5;entryY=1;entryDx=0;entryDy=0;" parent="1" source="jVwabESRVsB_DtnYk1jO-13" target="jVwabESRVsB_DtnYk1jO-7" edge="1">
          <mxGeometry relative="1" as="geometry">
            <mxPoint x="421" y="490" as="sourcePoint" />
            <mxPoint x="421" y="410" as="targetPoint" />
          </mxGeometry>
        </mxCell>
        <mxCell id="CQhCQnqNepJnieQpfATV-1" value="&lt;p style=&quot;margin:0px;margin-top:4px;text-align:center;&quot;&gt;&lt;b&gt;Ingrediente&lt;/b&gt;&lt;/p&gt;&lt;hr size=&quot;1&quot; style=&quot;border-style:solid;&quot;&gt;&lt;p style=&quot;margin:0px;margin-left:4px;&quot;&gt;+ descricao: String;&lt;/p&gt;&lt;hr size=&quot;1&quot; style=&quot;border-style:solid;&quot;&gt;&lt;p style=&quot;margin:0px;margin-left:4px;&quot;&gt;+ construct(descricao): void&lt;/p&gt;" style="verticalAlign=top;align=left;overflow=fill;html=1;whiteSpace=wrap;" parent="1" vertex="1">
          <mxGeometry x="331" y="140" width="160" height="80" as="geometry" />
        </mxCell>
      </root>
    </mxGraphModel>
  </diagram>
</mxfile>
